<svg width="1600" height="720" viewBox="0 0 1600 720" fill="none" xmlns="http://www.w3.org/2000/svg">
  <defs>
    <linearGradient id="bg" x1="0" y1="0" x2="1600" y2="720" gradientUnits="userSpaceOnUse">
      <stop stop-color="#050A18"/>
      <stop offset="0.55" stop-color="#102A63"/>
      <stop offset="1" stop-color="#0B1A3E"/>
    </linearGradient>
    <radialGradient id="eyeGlow" cx="0" cy="0" r="1" gradientUnits="userSpaceOnUse" gradientTransform="translate(800 330) rotate(90) scale(90 260)">
      <stop stop-color="#7DD3FC" stop-opacity="0.95"/>
      <stop offset="1" stop-color="#7DD3FC" stop-opacity="0"/>
    </radialGradient>
    <radialGradient id="fog" cx="0" cy="0" r="1" gradientUnits="userSpaceOnUse" gradientTransform="translate(800 620) rotate(90) scale(150 900)">
      <stop stop-color="#0EA5E9" stop-opacity="0.25"/>
      <stop offset="1" stop-color="#0EA5E9" stop-opacity="0"/>
    </radialGradient>
  </defs>

  <rect width="1600" height="720" fill="url(#bg)"/>
  <rect width="1600" height="720" fill="url(#fog)"/>

  <g opacity="0.22" stroke="#60A5FA">
    <path d="M0 580H1600"/>
    <path d="M0 540H1600"/>
    <path d="M0 500H1600"/>
    <path d="M0 460H1600"/>
  </g>

  <g opacity="0.35" stroke="#93C5FD" stroke-width="2">
    <path d="M110 600C280 530 360 570 500 520C650 470 770 540 920 500C1080 460 1190 520 1360 460C1460 425 1520 420 1590 390"/>
    <path d="M70 655C270 610 370 640 520 590C700 530 840 610 980 560C1120 515 1260 560 1410 520C1490 500 1550 485 1600 470"/>
  </g>

  <g>
    <rect x="610" y="170" width="380" height="370" rx="90" fill="#0B132B" fill-opacity="0.88" stroke="#93C5FD" stroke-opacity="0.35" stroke-width="3"/>
    <rect x="665" y="245" width="270" height="95" rx="47" fill="#020617" stroke="#60A5FA" stroke-opacity="0.45"/>
    <ellipse cx="735" cy="293" rx="40" ry="16" fill="#67E8F9"/>
    <ellipse cx="865" cy="293" rx="40" ry="16" fill="#67E8F9"/>
    <rect x="725" y="389" width="150" height="18" rx="9" fill="#93C5FD" fill-opacity="0.45"/>
    <rect x="770" y="130" width="60" height="42" rx="16" fill="#1E3A8A" stroke="#60A5FA" stroke-opacity="0.5"/>
    <rect x="787" y="98" width="26" height="34" rx="10" fill="#22D3EE"/>
  </g>

  <rect width="1600" height="720" fill="url(#eyeGlow)" opacity="0.7"/>

  <g fill="#BFDBFE" fill-opacity="0.26">
    <rect x="170" y="360" width="45" height="220"/>
    <rect x="230" y="330" width="45" height="250"/>
    <rect x="290" y="405" width="45" height="175"/>
    <rect x="1260" y="355" width="42" height="225"/>
    <rect x="1315" y="300" width="42" height="280"/>
    <rect x="1370" y="395" width="42" height="185"/>
  </g>
</svg>
